<?xml version="1.0" encoding="UTF-8"?>
<svg version="1.1" xmlns="http://www.w3.org/2000/svg" width="740" height="466">
<path d="M0 0 C244.2 0 488.4 0 740 0 C740 153.78 740 307.56 740 466 C495.8 466 251.6 466 0 466 C0 312.22 0 158.44 0 0 Z " fill="#FDFDFD" transform="translate(0,0)"/>
<path d="M0 0 C4.52350373 2.14271229 7.1936388 4.89188015 10 9 C10.50336456 11.9723196 10.50336456 11.9723196 10.50793457 15.33140564 C10.51921387 16.60855942 10.53049316 17.8857132 10.54211426 19.2015686 C10.53433766 20.60956038 10.52614502 22.01754992 10.51757812 23.42553711 C10.52300059 24.91406438 10.53012395 26.40258627 10.53881836 27.89109802 C10.55704171 31.92840018 10.54998804 35.9652931 10.53730202 40.00260234 C10.52716727 44.23055156 10.53656919 48.45846601 10.54284668 52.68641663 C10.55012251 59.78734621 10.54053796 66.88810936 10.52148438 73.98901367 C10.49972406 82.19329616 10.50676101 90.3971809 10.52879 98.60145372 C10.54695589 105.64960757 10.54949628 112.69764182 10.53903532 119.74581152 C10.53280582 123.95349587 10.53194955 128.16099342 10.54518127 132.3686657 C10.55675625 136.32589978 10.54868445 140.28262243 10.52560425 144.23980141 C10.52032552 145.69019091 10.52181668 147.14062361 10.53065491 148.59099579 C10.54162542 150.57451822 10.52541322 152.55813496 10.50793457 154.54161072 C10.50642647 155.65048614 10.50491837 156.75936155 10.50336456 157.90183926 C9.57561731 163.61203489 5.7332307 168.02485692 1.30859375 171.56640625 C-10.50015003 178.89941634 -26.58511523 180.53981835 -39.9296875 183.34960938 C-42.51992125 183.89830393 -45.10437668 184.46590371 -47.6875 185.046875 C-57.45159785 187.16776511 -66.95607105 189.1679594 -76 184 C-78.79656139 181.64500093 -79.83771178 180.48686467 -81 177 C-81.10066657 175.24206677 -81.14360338 173.48058592 -81.15390015 171.71980286 C-81.16250061 170.62498596 -81.17110107 169.53016907 -81.17996216 168.4021759 C-81.18422211 167.20058334 -81.18848206 165.99899078 -81.19287109 164.76098633 C-81.20104858 163.49568085 -81.20922607 162.23037537 -81.21765137 160.92672729 C-81.24384498 156.72851688 -81.2591782 152.53029663 -81.2734375 148.33203125 C-81.27879863 146.88503196 -81.28417614 145.43803273 -81.28956985 143.99103355 C-81.31119634 137.96978653 -81.32993119 131.94854215 -81.34119225 125.92726612 C-81.35741949 117.3081696 -81.39056951 108.68952471 -81.44759309 100.07059842 C-81.4863496 94.00507032 -81.50583176 87.93966272 -81.51111281 81.87401408 C-81.51475906 78.25407409 -81.52670131 74.63461609 -81.55921555 71.01481056 C-81.59501229 66.97159808 -81.59091095 62.92935059 -81.58349609 58.88598633 C-81.59990143 57.69451492 -81.61630676 56.50304352 -81.63320923 55.27546692 C-81.57168706 47.07409952 -79.91808354 41.98421153 -74.1484375 36.1171875 C-69.73103728 33.02306136 -65.19037266 30.40288759 -60.42578125 27.87890625 C-56.02809787 25.46694991 -51.73441318 22.89874912 -47.4375 20.3125 C-46.58365723 19.79872803 -45.72981445 19.28495605 -44.85009766 18.75561523 C-40.5289117 16.14828159 -36.2181782 13.52459651 -31.91796875 10.8828125 C-31.11109619 10.38740967 -30.30422363 9.89200684 -29.47290039 9.3815918 C-27.95097304 8.44552023 -26.43053051 7.50702851 -24.91186523 6.56567383 C-16.36202547 1.29924399 -10.26164098 -1.17649387 0 0 Z " fill="#935E3A" transform="translate(513,117)"/>
<path d="M0 0 C1.10214844 -0.02513672 1.10214844 -0.02513672 2.2265625 -0.05078125 C5.02647358 0.42265826 6.37107611 1.31304915 8.375 3.3125 C11.03270773 14.57397344 6.25497153 29.29217246 4.05664062 40.52148438 C2.46271149 48.70286971 1.031347 56.90980028 -0.375 65.125 C-0.59776611 66.4258252 -0.82053223 67.72665039 -1.05004883 69.06689453 C-1.57646758 72.14852137 -2.10156378 75.23036536 -2.625 78.3125 C-6.96052748 76.70054385 -10.09601597 74.513755 -13.5625 71.5 C-14.56152344 70.64792969 -15.56054688 69.79585938 -16.58984375 68.91796875 C-17.08339355 68.49306152 -17.57694336 68.0681543 -18.08544922 67.63037109 C-20.5766452 65.49788205 -23.1018263 63.4069974 -25.625 61.3125 C-28.95300288 62.77083834 -31.19171085 64.62481354 -33.8125 67.125 C-75.39644735 105.17248262 -129.57418116 133.89925515 -181.80249023 154.21191406 C-184.40338156 155.22608395 -186.99367123 156.26294937 -189.58203125 157.30859375 C-213.54965846 166.91145378 -237.82982915 174.65178301 -262.69970703 181.49853516 C-265.34586594 182.23483075 -267.98455488 182.99181297 -270.62109375 183.76171875 C-279.87732203 186.44796338 -289.03817413 188.4279621 -298.55639648 189.95703125 C-300.76833008 190.33712983 -302.96183131 190.7783617 -305.16015625 191.23046875 C-311.42500161 192.50202253 -317.72661762 193.5521608 -324.03198242 194.59960938 C-326.08368218 194.94102484 -328.13461664 195.28680787 -330.18554688 195.6328125 C-331.48427734 195.849375 -332.78300781 196.0659375 -334.12109375 196.2890625 C-335.88731079 196.58417725 -335.88731079 196.58417725 -337.68920898 196.88525391 C-340.625 197.3125 -340.625 197.3125 -343.625 197.3125 C-343.625 196.6525 -343.625 195.9925 -343.625 195.3125 C-342.21541016 194.85423828 -342.21541016 194.85423828 -340.77734375 194.38671875 C-288.50118139 177.24106708 -237.34231247 156.78728805 -188.91796875 130.55029297 C-186.45231141 129.21927905 -183.97651594 127.90834585 -181.5 126.59765625 C-137.85973234 103.34237799 -96.66266616 74.58214833 -60.48046875 40.82421875 C-58.625 39.3125 -58.625 39.3125 -56.625 39.3125 C-56.625 38.6525 -56.625 37.9925 -56.625 37.3125 C-57.17414063 37.07144531 -57.72328125 36.83039062 -58.2890625 36.58203125 C-61.16352823 35.01982161 -63.48705266 33.09412278 -66 31 C-66.96292969 30.19820312 -67.92585938 29.39640625 -68.91796875 28.5703125 C-69.81128906 27.82523438 -70.70460938 27.08015625 -71.625 26.3125 C-72.30175781 25.77367188 -72.97851562 25.23484375 -73.67578125 24.6796875 C-75.02852645 23.60136555 -76.33395251 22.46397479 -77.625 21.3125 C-77.625 20.6525 -77.625 19.9925 -77.625 19.3125 C-76.02785156 18.94898438 -76.02785156 18.94898438 -74.3984375 18.578125 C-66.32974115 16.72216573 -58.35832251 14.70586652 -50.41015625 12.37890625 C-41.75537086 9.94056114 -32.99687521 7.87777646 -24.265625 5.73291016 C-22.78346341 5.36843895 -21.30152034 5.00307766 -19.81982422 4.63671875 C-17.88304523 4.15789252 -15.94545751 3.68234083 -14.0078125 3.20703125 C-10.63780159 2.36112526 -10.63780159 2.36112526 -7.46875 1.21875 C-4.81964793 0.37453066 -2.76216106 0.01464043 0 0 Z " fill="#783E21" transform="translate(540.625,16.6875)"/>
<path d="M0 0 C3.24632868 2.3471657 5.43642605 4.40463908 7.671875 7.7578125 C7.93193722 9.71599197 7.93193722 9.71599197 7.94602966 11.98175049 C7.95600479 12.84241623 7.96597992 13.70308197 7.97625732 14.58982849 C7.976922 15.53117142 7.97758667 16.47251434 7.97827148 17.44238281 C7.986595 18.43619461 7.99491852 19.43000641 8.00349426 20.45393372 C8.02764061 23.74797456 8.03637285 27.04181747 8.04296875 30.3359375 C8.05193277 32.62416647 8.06105457 34.91239482 8.07032776 37.20062256 C8.08683377 42.00241522 8.0945206 46.80413802 8.09741211 51.60595703 C8.10279218 57.7541634 8.14045059 63.90171157 8.18615627 70.04973221 C8.21592617 74.77842595 8.22313569 79.50696136 8.22413826 84.23574066 C8.228342 86.50193033 8.24078236 88.7681204 8.26165581 91.03421783 C8.28856256 94.20852216 8.28374558 97.38130327 8.27124023 100.55566406 C8.28607452 101.48891006 8.30090881 102.42215607 8.31619263 103.38368225 C8.24454844 109.78188912 6.91628037 112.93589183 2.671875 117.7578125 C-2.36757443 121.44521452 -6.66392783 121.8824302 -12.80566406 121.95068359 C-14.12093079 121.96674652 -15.43619751 121.98280945 -16.7913208 121.99935913 C-18.22545725 122.01084783 -19.65960098 122.02145616 -21.09375 122.03125 C-22.18204227 122.03923552 -22.18204227 122.03923552 -23.29232025 122.04738235 C-27.13350872 122.07406703 -30.97466523 122.09345581 -34.81591797 122.10791016 C-37.98385564 122.12123823 -41.15114747 122.14907524 -44.31884766 122.18994141 C-48.15554706 122.23942691 -51.99166183 122.26405008 -55.82866669 122.27113724 C-57.28464906 122.27782212 -58.74061979 122.29297189 -60.19641876 122.31702805 C-73.80372837 122.52903494 -73.80372837 122.52903494 -79.72528076 118.51675415 C-84.51554026 113.25998201 -85.92419471 108.62978744 -85.84570312 101.62280273 C-85.8527124 100.84137909 -85.85972168 100.05995544 -85.86694336 99.25485229 C-85.88443832 96.69166722 -85.87293272 94.12960102 -85.859375 91.56640625 C-85.8620721 89.77474253 -85.86595634 87.98308024 -85.87097168 86.19142151 C-85.87685496 82.44493612 -85.86834069 78.69883334 -85.84960938 74.95239258 C-85.82680385 70.15834624 -85.83996023 65.36519494 -85.86389923 60.5711813 C-85.87837488 56.87446892 -85.87374343 53.1779677 -85.86338806 49.48124886 C-85.86072651 47.71386674 -85.86397038 45.94646523 -85.87330627 44.17910576 C-85.88350314 41.70669862 -85.86792921 39.23572825 -85.84570312 36.76342773 C-85.85380005 36.03858688 -85.86189697 35.31374603 -85.87023926 34.56694031 C-85.77214263 28.6557427 -83.5722991 25.3529763 -79.80615234 20.99780273 C-74.77868074 16.46142789 -69.37685405 14.70412012 -62.953125 12.8203125 C-61.86620361 12.48749268 -60.77928223 12.15467285 -59.65942383 11.81176758 C-56.22237309 10.76931654 -52.77767159 9.75808884 -49.328125 8.7578125 C-48.20164551 8.43071289 -47.07516602 8.10361328 -45.91455078 7.76660156 C-6.65565986 -3.55117422 -6.65565986 -3.55117422 0 0 Z " fill="#945F3B" transform="translate(400.328125,185.2421875)"/>
<path d="M0 0 C4.71202998 1.76831147 7.1104692 4.52673778 9.89453125 8.5390625 C10.95220462 11.68694435 11.0319028 14.64049233 11.05566406 17.94677734 C11.06527161 19.02825043 11.07487915 20.10972351 11.08477783 21.22396851 C11.08902771 22.3875589 11.09327759 23.55114929 11.09765625 24.75 C11.10335632 25.95089264 11.1090564 27.15178528 11.1149292 28.3890686 C11.12437356 30.92929199 11.13091094 33.4695276 11.13476562 36.00976562 C11.14447643 39.89214453 11.17550825 43.7739952 11.20703125 47.65625 C11.213561 50.12499686 11.21881158 52.5937475 11.22265625 55.0625 C11.23500305 56.22204193 11.24734985 57.38158386 11.2600708 58.57626343 C11.24200127 65.12574208 11.01566572 70.11719372 6.39453125 75.18359375 C-1.86630237 81.61585743 -12.92912899 80.24166645 -22.92578125 79.0078125 C-41.6830515 76.35188211 -66.1064139 72.80738057 -78.84170532 57.54638672 C-81.02364155 54.08066415 -80.94630406 50.79144813 -80.8671875 46.7890625 C-80.87055618 45.97211914 -80.87392487 45.15517578 -80.87739563 44.31347656 C-80.87709819 42.59563873 -80.86198206 40.87774561 -80.83276367 39.16015625 C-80.79306211 36.54521157 -80.81208441 33.93534185 -80.83789062 31.3203125 C-80.83033061 29.64320969 -80.81937621 27.96611803 -80.8046875 26.2890625 C-80.8116716 25.51594727 -80.8186557 24.74283203 -80.82585144 23.94628906 C-80.67837662 18.21717991 -78.94963732 14.76700891 -75.10546875 10.5390625 C-70.56872405 6.59661462 -64.73597177 6.60007533 -58.98046875 5.9765625 C-53.13581118 5.305424 -47.3350581 4.62337944 -41.5546875 3.515625 C-36.07093655 2.47819849 -30.601352 1.93412447 -25.04296875 1.4765625 C-23.19760729 1.3226764 -21.35253228 1.16530256 -19.5078125 1.00390625 C-18.70851318 0.9380835 -17.90921387 0.87226074 -17.08569336 0.80444336 C-4.20838445 -0.92131608 -4.20838445 -0.92131608 0 0 Z " fill="#D29A66" transform="translate(281.10546875,224.4609375)"/>
<path d="M0 0 C4.62 0 9.24 0 14 0 C14 27.72 14 55.44 14 84 C9.38 84 4.76 84 0 84 C-0.33 82.02 -0.66 80.04 -1 78 C-1.45890625 78.42152344 -1.9178125 78.84304688 -2.390625 79.27734375 C-3.00421875 79.82519531 -3.6178125 80.37304688 -4.25 80.9375 C-4.85328125 81.48277344 -5.4565625 82.02804687 -6.078125 82.58984375 C-12.1765695 87.06451543 -22.57626549 85.55299338 -29.6875 84.5625 C-36.40369078 82.80290758 -41.99626628 77.35889047 -45.484375 71.51171875 C-46.4562811 69.36014402 -47.28243244 67.24747576 -48 65 C-48.33 64.01 -48.66 63.02 -49 62 C-49.80231858 50.41241521 -49.25815883 41.07925517 -41.8125 31.625 C-35.95741557 25.39216819 -28.4615318 23.21588057 -20.125 22.8125 C-13.46210904 22.92521808 -8.25099558 24.87421776 -3 29 C-2.505 30.485 -2.505 30.485 -2 32 C-1.34 32 -0.68 32 0 32 C0 21.44 0 10.88 0 0 Z " fill="#BF9266" transform="translate(696,346)"/>
<path d="M0 0 C4.79388918 3.57095827 8.85319871 7.59571431 10.48608398 13.4909668 C11.08967356 17.63001434 11.03646999 21.70579256 11.01171875 25.8828125 C11.0103038 26.7857756 11.00888885 27.68873871 11.00743103 28.61906433 C11.00185073 31.49217088 10.98930184 34.36519841 10.9765625 37.23828125 C10.97154495 39.19075408 10.96698249 41.14322814 10.96289062 43.09570312 C10.95188775 47.8724261 10.93463668 52.64909029 10.9140625 57.42578125 C6.2940625 57.42578125 1.6740625 57.42578125 -3.0859375 57.42578125 C-3.0859375 55.44578125 -3.0859375 53.46578125 -3.0859375 51.42578125 C-3.78460937 51.84730469 -4.48328125 52.26882813 -5.203125 52.703125 C-6.11320313 53.25097656 -7.02328125 53.79882812 -7.9609375 54.36328125 C-8.86585938 54.90855469 -9.77078125 55.45382812 -10.703125 56.015625 C-17.19507037 59.85757956 -25.69740365 59.39152391 -33.0859375 58.42578125 C-36.59179606 57.02634324 -38.69212973 55.31028646 -41.0859375 52.42578125 C-42.2925 51.03359375 -42.2925 51.03359375 -43.5234375 49.61328125 C-46.18222926 44.18934606 -46.66139626 39.65088846 -45.1484375 33.80078125 C-42.02744191 28.69369756 -37.84749111 24.34629912 -32.0859375 22.42578125 C-29.94799225 22.34240085 -27.80751741 22.31844378 -25.66796875 22.328125 C-24.41435547 22.33134766 -23.16074219 22.33457031 -21.86914062 22.33789062 C-19.90364258 22.35045898 -19.90364258 22.35045898 -17.8984375 22.36328125 C-16.56315269 22.36829808 -15.22786609 22.37286066 -13.89257812 22.37695312 C-10.62365277 22.3887543 -7.35481759 22.40521828 -4.0859375 22.42578125 C-4.34255995 20.98567644 -4.61684571 19.54871255 -4.8984375 18.11328125 C-5.04925781 17.31277344 -5.20007813 16.51226562 -5.35546875 15.6875 C-6.17838507 13.13953985 -7.01403229 12.08735804 -9.0859375 10.42578125 C-16.11743332 7.38945351 -22.04860238 8.05084014 -29.0703125 10.55859375 C-31.36628826 11.54639727 -33.1762653 12.8216566 -35.0859375 14.42578125 C-35.7459375 14.42578125 -36.4059375 14.42578125 -37.0859375 14.42578125 C-38.4453125 12.81640625 -38.4453125 12.81640625 -39.8359375 10.67578125 C-40.30515625 9.9796875 -40.774375 9.28359375 -41.2578125 8.56640625 C-42.0859375 6.42578125 -42.0859375 6.42578125 -41.35546875 4.2578125 C-39.57742531 1.69195904 -37.90243748 0.80406848 -35.0859375 -0.57421875 C-34.52648437 -0.85523438 -33.96703125 -1.13625 -33.390625 -1.42578125 C-23.39490818 -5.62006242 -9.31569942 -5.68225652 0 0 Z " fill="#7C4428" transform="translate(574.0859375,372.57421875)"/>
<path d="M0 0 C7.01111782 5.75183937 9.91461928 12.05691508 11 21 C11 23.64 11 26.28 11 29 C-4.51 29 -20.02 29 -36 29 C-31.62097916 38.65897665 -31.62097916 38.65897665 -24 44 C-13.80681845 44.95659088 -8.02678702 43.02009027 0 37 C2.31 39.64 4.62 42.28 7 45 C4.97549021 49.04901957 4.53132288 49.64077436 0.8125 51.625 C0.07644531 52.02976562 -0.65960938 52.43453125 -1.41796875 52.8515625 C-10.860608 57.05146558 -22.74738608 57.98792537 -32.5625 54.375 C-40.67950211 50.4870242 -45.71237334 45.02474089 -48.90625 36.61328125 C-51.81385687 27.82315493 -52.02899895 19.51616581 -48.0703125 11 C-44.05497104 3.91084543 -37.40334203 -3.18669393 -29.4140625 -5.58984375 C-18.39930336 -7.46128341 -9.22400497 -6.53254311 0 0 Z " fill="#7A4125" transform="translate(121,375)"/>
<path d="M0 0 C4.82810125 3.53157707 8.88867583 7.59687278 10.52124023 13.4909668 C11.12482981 17.63001434 11.07162624 21.70579256 11.046875 25.8828125 C11.04546005 26.7857756 11.0440451 27.68873871 11.04258728 28.61906433 C11.03700698 31.49217088 11.02445809 34.36519841 11.01171875 37.23828125 C11.0067012 39.19075408 11.00213874 41.14322814 10.99804688 43.09570312 C10.987044 47.8724261 10.96979293 52.64909029 10.94921875 57.42578125 C6.32921875 57.42578125 1.70921875 57.42578125 -3.05078125 57.42578125 C-3.38078125 55.77578125 -3.71078125 54.12578125 -4.05078125 52.42578125 C-4.69402344 52.85890625 -5.33726562 53.29203125 -6 53.73828125 C-14.77990919 59.14900988 -22.45991891 59.67122895 -32.48828125 57.73828125 C-37.97866031 55.71551002 -41.04095253 53.20981198 -43.92578125 48.11328125 C-45.55559262 42.77112177 -45.82820432 38.7123197 -43.98828125 33.30078125 C-40.76375962 28.51600722 -36.43867459 24.61305376 -31.05078125 22.42578125 C-28.02636719 22.19873047 -28.02636719 22.19873047 -24.53515625 22.23046875 C-22.65957031 22.24013672 -22.65957031 22.24013672 -20.74609375 22.25 C-19.44414062 22.26675781 -18.1421875 22.28351563 -16.80078125 22.30078125 C-15.48335938 22.30980469 -14.1659375 22.31882812 -12.80859375 22.328125 C-9.55580663 22.35169592 -6.30338536 22.38460103 -3.05078125 22.42578125 C-3.32148438 21.16636719 -3.5921875 19.90695312 -3.87109375 18.609375 C-4.02336426 17.90095459 -4.17563477 17.19253418 -4.33251953 16.46264648 C-5.60764892 12.84660145 -7.89348804 11.50959477 -11.05078125 9.42578125 C-15.87135704 7.40424947 -21.29631792 7.97912256 -26.11328125 9.73828125 C-29.5131093 11.13002373 -32.79763927 12.71788171 -36.05078125 14.42578125 C-38.03078125 11.45578125 -40.01078125 8.48578125 -42.05078125 5.42578125 C-32.8736883 -5.7463319 -11.84646774 -7.1400612 0 0 Z " fill="#7A4326" transform="translate(433.05078125,372.57421875)"/>
<path d="M0 0 C6.95291516 4.98818218 11.69116096 10.73698119 13.29296875 19.2265625 C13.68732513 23.10440022 13.66796875 27.01622433 13.66796875 30.9140625 C-1.84203125 30.9140625 -17.35203125 30.9140625 -33.33203125 30.9140625 C-29.21360664 40.55817636 -29.21360664 40.55817636 -21.33203125 45.9140625 C-15.00943555 46.88304268 -9.25928333 46.9874113 -3.70703125 43.5390625 C-2.5650631 42.68632646 -1.43799722 41.81300036 -0.33203125 40.9140625 C0.65796875 40.2540625 1.64796875 39.5940625 2.66796875 38.9140625 C4.97796875 41.5540625 7.28796875 44.1940625 9.66796875 46.9140625 C6.82717405 52.5956519 2.46671661 54.86477217 -3.30932617 57.28344727 C-7.04276986 58.44741649 -10.76260154 58.39996079 -14.64453125 58.3515625 C-15.48322754 58.34471436 -16.32192383 58.33786621 -17.18603516 58.33081055 C-25.05722409 58.12696889 -31.04251148 56.6918792 -37.14453125 51.5390625 C-37.86640625 50.6728125 -38.58828125 49.8065625 -39.33203125 48.9140625 C-40.19828125 47.9653125 -41.06453125 47.0165625 -41.95703125 46.0390625 C-48.58334373 37.32023029 -48.7442403 27.4726788 -47.33203125 16.9140625 C-44.6394351 8.61189105 -37.73639148 2.34375264 -30.50390625 -2.24609375 C-20.84645674 -6.75990167 -8.9687654 -5.10771795 0 0 Z " fill="#7A4226" transform="translate(230.33203125,373.0859375)"/>
<path d="M0 0 C4.71461052 6.2169346 4.92637834 12.92258695 4.80078125 20.39453125 C4.79653641 21.35983765 4.79229156 22.32514404 4.78791809 23.31970215 C4.77124347 26.37618955 4.73361242 29.4319961 4.6953125 32.48828125 C4.68025116 34.571605 4.6665653 36.65493918 4.65429688 38.73828125 C4.62137674 43.8218734 4.56967266 48.90496224 4.5078125 53.98828125 C-0.1121875 53.98828125 -4.7321875 53.98828125 -9.4921875 53.98828125 C-9.5015332 52.83827637 -9.51087891 51.68827148 -9.52050781 50.50341797 C-9.56050134 46.22031493 -9.62628585 41.93792312 -9.69970703 37.65527344 C-9.72786248 35.80478072 -9.74910396 33.95416896 -9.76318359 32.10351562 C-9.7846887 29.43688245 -9.8313761 26.77167241 -9.8828125 24.10546875 C-9.88404114 23.28335907 -9.88526978 22.46124939 -9.88653564 21.61422729 C-10.02101089 16.29242779 -10.98555177 13.22544895 -14.4921875 8.98828125 C-18.89095562 5.86686502 -24.334814 6.49783266 -29.4921875 6.98828125 C-33.75771367 8.67671869 -35.53523585 10.87868278 -37.4921875 14.98828125 C-38.59299177 19.2639456 -38.70639076 23.52382974 -38.80859375 27.9140625 C-38.82937485 28.66165329 -38.85015594 29.40924408 -38.87156677 30.17948914 C-38.93662939 32.55316521 -38.9957446 34.92694612 -39.0546875 37.30078125 C-39.09791396 38.9160262 -39.14152954 40.53126078 -39.18554688 42.14648438 C-39.29226601 46.09364424 -39.39365369 50.04090892 -39.4921875 53.98828125 C-44.1121875 53.98828125 -48.7321875 53.98828125 -53.4921875 53.98828125 C-53.4921875 34.18828125 -53.4921875 14.38828125 -53.4921875 -6.01171875 C-48.8721875 -6.01171875 -44.2521875 -6.01171875 -39.4921875 -6.01171875 C-39.4921875 -3.37171875 -39.4921875 -0.73171875 -39.4921875 1.98828125 C-38.8321875 1.98828125 -38.1721875 1.98828125 -37.4921875 1.98828125 C-37.3065625 1.41078125 -37.1209375 0.83328125 -36.9296875 0.23828125 C-34.45323422 -3.63790649 -30.38709803 -5.41332595 -26.1171875 -6.76171875 C-15.99861559 -7.72539227 -8.0470026 -6.58921228 0 0 Z " fill="#7A4124" transform="translate(308.4921875,376.01171875)"/>
<path d="M0 0 C5.46784145 3.1067281 7.82114897 8.28812456 10 14 C10.60226459 17.56341629 10.59044026 20.99587754 10.48828125 24.6015625 C10.48120651 25.564039 10.47413177 26.5265155 10.46684265 27.51815796 C10.43913305 30.55460517 10.37644116 33.58912209 10.3125 36.625 C10.28738676 38.69919188 10.26457894 40.77341303 10.24414062 42.84765625 C10.18938359 47.89916704 10.10327742 52.94925773 10 58 C5.38 58 0.76 58 -4 58 C-4.01458252 56.95134766 -4.02916504 55.90269531 -4.04418945 54.82226562 C-4.10252633 50.90070918 -4.17975437 46.97970585 -4.26245117 43.05859375 C-4.29553509 41.36727939 -4.32361759 39.67585901 -4.34643555 37.984375 C-4.38028836 35.54121061 -4.43261508 33.09900345 -4.48828125 30.65625 C-4.49467117 29.91008423 -4.5010611 29.16391846 -4.50764465 28.3951416 C-4.66401812 22.70602743 -5.47057338 16.4284739 -9.76171875 12.30859375 C-14.78226234 10.03763793 -18.66964364 9.28943015 -24 11 C-28.97596352 13.53492481 -30.93861785 15.86480817 -33 21 C-33.43711603 23.89499947 -33.48771005 26.75516663 -33.51171875 29.6796875 C-33.52966995 30.49245148 -33.54762115 31.30521545 -33.56611633 32.14260864 C-33.61998358 34.7200208 -33.65403836 37.2972503 -33.6875 39.875 C-33.72069399 41.63023362 -33.75518557 43.38544321 -33.79101562 45.140625 C-33.87569611 49.42695103 -33.94261897 53.71322512 -34 58 C-38.62 58 -43.24 58 -48 58 C-48 38.2 -48 18.4 -48 -2 C-43.38 -2 -38.76 -2 -34 -2 C-33.67 0.31 -33.34 2.62 -33 5 C-32.55269531 4.59007812 -32.10539062 4.18015625 -31.64453125 3.7578125 C-31.03996094 3.21898437 -30.43539063 2.68015625 -29.8125 2.125 C-29.22082031 1.59132813 -28.62914062 1.05765625 -28.01953125 0.5078125 C-19.99676977 -5.48210226 -8.62747566 -4.0735916 0 0 Z " fill="#783F23" transform="translate(507,372)"/>
<path d="M0 0 C3 2.625 3 2.625 5 5 C5 5.66 5 6.32 5 7 C3.03125 8.7265625 3.03125 8.7265625 0.5 10.625 C-0.75296875 11.57246094 -0.75296875 11.57246094 -2.03125 12.5390625 C-2.6809375 13.02117187 -3.330625 13.50328125 -4 14 C-4.51949219 13.57847656 -5.03898437 13.15695312 -5.57421875 12.72265625 C-10.71075898 8.53623294 -10.71075898 8.53623294 -17 7 C-18.093125 6.896875 -19.18625 6.79375 -20.3125 6.6875 C-24.92704058 7.07856276 -28.22863281 8.31904985 -32 11 C-36.33437613 16.44575463 -37.64468663 21.11140394 -37 28 C-35.69429688 34.65023367 -33.5991894 38.18778594 -28 42 C-23.82101785 44.08949108 -18.55065634 43.44019421 -14 43 C-10.37831612 41.1573889 -7.70841738 39.00935265 -5 36 C-1.4213696 37.65167557 1.74820188 39.78286492 5 42 C4.00495082 47.77128524 -0.27018104 50.06538917 -4.796875 53.2734375 C-13.08435837 57.94757812 -25.21543276 57.52892947 -34.20703125 55.15234375 C-42.03968105 51.60298632 -47.1345514 45.60808786 -50.375 37.75 C-53.86205136 28.22883367 -53.67625128 20.46235113 -50 11 C-46.52620164 4.31961855 -40.188973 -1.89804385 -33.25 -5 C-22.21919541 -8.41954942 -9.636095 -6.01999112 0 0 Z " fill="#7C4428" transform="translate(377,375)"/>
<path d="M0 0 C4.95 0 9.9 0 15 0 C15 5.28 15 10.56 15 16 C20.61 16 26.22 16 32 16 C32 19.96 32 23.92 32 28 C26.39 28 20.78 28 15 28 C15.05108114 32.62795102 15.11403825 37.25255308 15.20751953 41.87939453 C15.23570954 43.45252644 15.25693398 45.02579947 15.27099609 46.59912109 C15.29245442 48.86368956 15.33911348 51.12656504 15.390625 53.390625 C15.39185364 54.09181458 15.39308228 54.79300415 15.39434814 55.51544189 C15.49649481 58.93636388 15.78719184 60.72574475 17.91088867 63.46264648 C19.84452155 65.15832638 19.84452155 65.15832638 22.03515625 65.20703125 C22.70417969 65.07683594 23.37320313 64.94664062 24.0625 64.8125 C24.73410156 64.69519531 25.40570313 64.57789063 26.09765625 64.45703125 C28.20311879 63.97999748 28.20311879 63.97999748 31 63 C32.78628454 66.79585466 33.63812789 69.80658812 33 74 C28.9911318 77.25480086 25.10680798 77.51276264 20.125 77.4375 C19.41045654 77.42702637 18.69591309 77.41655273 17.9597168 77.40576172 C12.28745452 77.2092014 9.15855692 76.88131979 5 73 C-1.44503469 64.42207613 -0.58453134 55.03768014 -0.3125 44.875 C-0.28737237 43.23440919 -0.26456712 41.59378108 -0.24414062 39.953125 C-0.18952798 35.96781518 -0.1035097 31.98432738 0 28 C-3.3 28 -6.6 28 -10 28 C-10 24.04 -10 20.08 -10 16 C-6.7 16 -3.4 16 0 16 C0 10.72 0 5.44 0 0 Z " fill="#7E472C" transform="translate(33,354)"/>
<path d="M0 0 C0 4.62 0 9.24 0 14 C-2.536875 14.12375 -2.536875 14.12375 -5.125 14.25 C-10.13503429 14.73235247 -13.24746576 15.43051621 -17 19 C-22.36100234 26.75908471 -21.66967065 35.43212409 -21.75 44.5 C-21.7781948 46.10159432 -21.80812708 47.70315905 -21.83984375 49.3046875 C-21.91329515 53.2030716 -21.963122 57.1011054 -22 61 C-26.62 61 -31.24 61 -36 61 C-36 41.2 -36 21.4 -36 1 C-31.38 1 -26.76 1 -22 1 C-21.67 3.64 -21.34 6.28 -21 9 C-20.319375 8.236875 -19.63875 7.47375 -18.9375 6.6875 C-13.40657325 1.62729042 -7.46841135 0 0 0 Z " fill="#7B4427" transform="translate(179,369)"/>
<path d="M0 0 C4.85650911 2.42825456 7.85076373 5.6810474 11 10 C12.95243832 15.86983059 13.27993239 22.96182139 10.87109375 28.6796875 C8.00899522 33.23812119 5.31968861 36.49442775 0 38 C-5.83006391 38.85973293 -10.53534163 38.86329747 -15.5 35.4375 C-20.04589219 31.41326757 -21.71549532 27.84864817 -22.30859375 21.91015625 C-22.56729829 15.06624532 -22.3591985 10.39164024 -18 5 C-12.1959744 0.49891892 -7.21953134 -0.87922251 0 0 Z " fill="#FCFBFA" transform="translate(684,381)"/>
<path d="M0 0 C4.95 0 9.9 0 15 0 C15 19.8 15 39.6 15 60 C10.05 60 5.1 60 0 60 C0 40.2 0 20.4 0 0 Z " fill="#C1976B" transform="translate(621,370)"/>
<path d="M0 0 C4.89699907 2.27360671 7.47840287 5.24775926 10 10 C10 11.65 10 13.3 10 15 C-0.89 15 -11.78 15 -23 15 C-21.13126532 8.45942864 -20.14986633 5.24292206 -14.734375 1.38671875 C-9.99751281 -1.01554708 -5.18173051 -0.62574493 0 0 Z " fill="#F7F4F3" transform="translate(220,380)"/>
<path d="M0 0 C1.54010742 0.02707031 1.54010742 0.02707031 3.11132812 0.0546875 C5.63767885 0.10168937 8.16210469 0.16737728 10.6875 0.25 C10.9375 7.8359375 10.9375 7.8359375 8.6875 11.5625 C4.55560161 15.8340682 -0.67038703 17.36101753 -6.5 17.625 C-10.42354384 17.23907766 -12.29449822 16.73541323 -15.3125 14.25 C-17.22649936 11.72700084 -17.31650861 10.44241321 -17.25 7.25 C-14.61774429 -1.17321827 -7.40267376 -0.24628217 0 0 Z " fill="#F7F4F2" transform="translate(559.3125,403.75)"/>
<path d="M0 0 C4.799196 4.48620495 5.01762386 6.12336703 6 13 C-4.89 13 -15.78 13 -27 13 C-25.03582814 6.1253985 -24.08536164 3.03353381 -18.25 -0.8125 C-12.05951338 -3.07440857 -6.03624029 -2.50560918 0 0 Z " fill="#F7F5F3" transform="translate(112,382)"/>
<path d="M0 0 C0.88945312 0.00322266 1.77890625 0.00644531 2.6953125 0.00976562 C4.07589844 0.02233398 4.07589844 0.02233398 5.484375 0.03515625 C6.42023438 0.03966797 7.35609375 0.04417969 8.3203125 0.04882812 C10.62506541 0.06058707 12.92968727 0.07702199 15.234375 0.09765625 C14.2398499 9.56514518 14.2398499 9.56514518 10.234375 14.09765625 C5.36573444 16.90648734 0.76787628 18.10473183 -4.765625 17.09765625 C-8.04991132 15.74976996 -11.12024145 14.38842335 -12.765625 11.09765625 C-13.16119013 7.45845707 -13.26017472 5.75116838 -11.015625 2.78515625 C-7.4842105 0.13659537 -4.33172011 -0.02776744 0 0 Z " fill="#F6F3F1" transform="translate(414.765625,403.90234375)"/>
<path d="M0 0 C2.09375 0.41015625 2.09375 0.41015625 4.65625 1.91015625 C6.68020748 5.43008231 6.92458813 8.44331144 6.09375 12.41015625 C3.54507672 15.72343151 1.49067449 17.21966655 -2.65625 17.78515625 C-7.14757722 17.26692619 -8.91929516 15.75270096 -11.90625 12.41015625 C-12.76926172 8.01664205 -12.4341101 6.21046027 -9.96875 2.47265625 C-6.3673819 0.04724508 -4.25713516 -0.27671379 0 0 Z " fill="#C3996C" transform="translate(630.90625,343.58984375)"/>
<path d="M0 0 C4.15672698 0.74227268 5.83984093 1.31995388 8.5 4.625 C9.21014629 7.77158314 9.21014629 10.47841686 8.5 13.625 C5.83120085 16.94078076 4.18392436 17.51508359 0 18.1875 C-3.5 17.625 -3.5 17.625 -6.4375 15.5 C-8.5 12.625 -8.5 12.625 -9.125 9.6875 C-8.0068295 4.20846453 -5.5902155 0.99825277 0 0 Z " fill="#BC9166" transform="translate(602.5,413.375)"/>
<path d="M0 0 C-0.61875 0.28875 -1.2375 0.5775 -1.875 0.875 C-4.13325765 1.93720042 -4.13325765 1.93720042 -6 4 C-5.01 4.99 -4.02 5.98 -3 7 C-7.10355363 7.67047742 -11.2079374 8.33572962 -15.3125 9 C-16.47974609 9.19078125 -17.64699219 9.3815625 -18.84960938 9.578125 C-19.96787109 9.75859375 -21.08613281 9.9390625 -22.23828125 10.125 C-23.7857605 10.37636719 -23.7857605 10.37636719 -25.36450195 10.6328125 C-28 11 -28 11 -31 11 C-31 10.34 -31 9.68 -31 9 C-29.24236328 8.41992188 -29.24236328 8.41992188 -27.44921875 7.828125 C-25.86189394 7.30234056 -24.2746604 6.77628054 -22.6875 6.25 C-21.45966797 5.84382446 -21.45966797 5.84382446 -20.20703125 5.42944336 C-14.73897126 3.61017064 -9.33233466 1.67707614 -3.96875 -0.43359375 C-2 -1 -2 -1 0 0 Z " fill="#7F4F37" transform="translate(228,203)"/>
<path d="M0 0 C-0.61875 0.28875 -1.2375 0.5775 -1.875 0.875 C-4.13325765 1.93720042 -4.13325765 1.93720042 -6 4 C-5.01 4.99 -4.02 5.98 -3 7 C-10.09821429 6.33035714 -10.09821429 6.33035714 -13 3 C-11.21189234 2.30329584 -9.41937948 1.61788811 -7.625 0.9375 C-6.62726563 0.55464844 -5.62953125 0.17179688 -4.6015625 -0.22265625 C-2 -1 -2 -1 0 0 Z " fill="#895E48" transform="translate(228,203)"/>
</svg>
